<svg xmlns="http://www.w3.org/2000/svg" width="620" height="340" viewBox="0 0 620 340"><ellipse cx="315" cy="178" rx="244" ry="139" fill="#fff5ec"/><circle cx="478" cy="103" r="33" fill="#ffe4a0"/><path d="M100 227q-24-79 29-109q10 50-29 109" fill="#91bfb2"/><path d="M101 230q-5-49-45-59q-5 46 45 59" fill="#b4d3b7"/><path d="M80 235h48l-8 51H89z" fill="#e5ada2"/><ellipse cx="327" cy="287" rx="190" ry="15" fill="#eaded2"/><g transform="rotate(-9 300 242)"><rect x="174" y="213" width="263" height="52" rx="9" fill="#e8555b"/><path d="M192 220h234v33H192q-15-16 0-33" fill="#fff6e8"/><path d="M207 230h208m-208 12h208" stroke="#e8d7c2" stroke-width="2"/></g><g transform="rotate(5 300 200)"><rect x="198" y="171" width="245" height="44" rx="7" fill="#74aaa4"/><path d="M218 179h214v26H218q-12-13 0-26" fill="#fffcf5"/><path d="M230 192h192" stroke="#d8e3db" stroke-width="2"/></g><path d="M183 92q63-16 123 18v100q-53-35-123-17z" fill="#edbd6d"/><path d="M194 80q64-12 112 26v91q-51-35-112-18z" fill="#fffdf8"/><path d="M306 106q49-38 114-26v99q-63-17-114 18z" fill="#fffdf8"/><path d="M420 92l11 3v98q-68-18-125 17v-13q59-36 114-18z" fill="#edbd6d"/><path d="M306 106v92" stroke="#e9ddc8" stroke-width="3"/><path d="M213 113q39-5 70 15m-70 8q39-5 70 15m-70 7q39-5 57 10" fill="none" stroke="#e6ded2" stroke-width="5" stroke-linecap="round"/><path d="M333 153l17-22 14 13 18-29 19 46z" fill="#b6d3bd"/><circle cx="343" cy="115" r="9" fill="#f2c46e"/><g transform="rotate(25 473 195)"><rect x="463" y="119" width="23" height="131" rx="3" fill="#f4bb56"/><path d="M463 250l12 28 11-28" fill="#e0b997"/><path d="M471 269l4 9 4-9" fill="#3d4056"/><path d="M475 133v110" stroke="#ffe6a6" stroke-width="5"/><path d="M463 132v-17q12-15 23 0v17" fill="#e87979"/></g><g fill="#e31b23"><path d="M147 55l4 13 13 4-13 4-4 13-4-13-13-4 13-4z"/><circle cx="531" cy="210" r="5"/><path d="M451 39l3 10 10 3-10 3-3 10-3-10-10-3 10-3z"/></g><g fill="#689e99"><circle cx="224" cy="43" r="5"/><path d="M548 138l3 10 10 3-10 3-3 10-3-10-10-3 10-3z"/></g><text x="107" y="140" font-family="Arial" font-size="26" font-weight="bold" fill="#df9a59" transform="rotate(-15 107 140)">A</text><text x="514" y="263" font-family="Arial" font-size="28" font-weight="bold" fill="#83a8bb" transform="rotate(12 514 263)">+</text></svg>
